<svg xmlns="http://www.w3.org/2000/svg" xmlns:xlink="http://www.w3.org/1999/xlink" width="1080" zoomAndPan="magnify" viewBox="0 0 810 809.999993" height="1080" preserveAspectRatio="xMidYMid meet" version="1.0"><defs><g/><clipPath id="9aa36d3668"><path d="M 128.171875 99.246094 L 701.921875 99.246094 L 701.921875 548.496094 L 128.171875 548.496094 Z M 128.171875 99.246094 " clip-rule="nonzero"/></clipPath></defs><g clip-path="url(#9aa36d3668)"><path fill="#191919" d="M 397.136719 160.746094 C 397.175781 160.5625 397.246094 160.417969 397.355469 160.34375 C 397.6875 160.050781 398.160156 160.089844 398.453125 160.378906 C 398.5625 160.527344 398.597656 160.671875 398.632812 160.820312 C 400.09375 178.648438 405.050781 200.601562 415.734375 215.40625 C 424.667969 227.804688 443.59375 239.144531 451.035156 249.171875 C 474.808594 281.226562 465.144531 316.488281 440.679688 344.457031 C 440.640625 344.492188 440.605469 344.492188 440.570312 344.492188 C 440.460938 344.492188 440.386719 344.417969 440.386719 344.308594 C 440.386719 344.308594 440.386719 344.273438 440.386719 344.273438 C 455.773438 314.882812 466.09375 275.390625 437.066406 250.523438 C 409.207031 226.601562 388.167969 200.785156 397.136719 160.746094 Z M 471.820312 505.121094 L 471.929688 504.246094 C 551.457031 528.457031 619.210938 493.34375 671.609375 435.144531 C 672.085938 434.597656 672.046875 434.125 671.429688 433.722656 C 646.160156 417.53125 609.546875 409.253906 580.046875 406.117188 C 579.390625 406.046875 578.84375 406.226562 578.332031 406.703125 C 546.9375 436.894531 506.570312 450.09375 463.324219 451.1875 C 463.25 451.226562 463.175781 451.1875 463.105469 451.152344 C 462.996094 451.042969 462.996094 450.859375 463.105469 450.714844 C 463.140625 450.679688 463.214844 450.640625 463.285156 450.605469 C 478.636719 448.671875 492.3125 445.867188 504.273438 442.183594 C 575.089844 420.414062 608.234375 360.28125 613.8125 290.160156 C 613.851562 289.429688 613.558594 289.140625 612.867188 289.25 C 578.660156 294.789062 545.660156 312.730469 517.4375 332.132812 C 514.628906 334.027344 512.1875 336.542969 510.179688 339.644531 C 491.691406 367.941406 468.355469 394.230469 440.167969 418.554688 C 427.988281 429.054688 417.59375 441.636719 408.917969 456.332031 C 388.3125 491.375 393.601562 520.472656 423.101562 547.566406 C 423.175781 547.640625 423.246094 547.75 423.246094 547.859375 C 423.246094 548.078125 423.066406 548.222656 422.847656 548.222656 C 422.773438 548.222656 422.699219 548.222656 422.628906 548.148438 C 376.0625 519.378906 367.929688 473.578125 404.613281 432.375 C 405.015625 431.898438 405.269531 431.28125 405.34375 430.660156 C 409.027344 395.363281 413.328125 334.027344 373.363281 316.523438 C 354.730469 308.355469 327.601562 315.539062 327.234375 287.207031 C 327.234375 286.585938 327.492188 286.148438 328 285.855469 C 332.667969 283.160156 341.566406 276.777344 334.929688 270.832031 C 333.179688 269.265625 331.429688 267.734375 329.640625 266.203125 C 328.875 265.582031 328.585938 264.5625 328.914062 263.613281 C 329.933594 260.40625 331.976562 257.925781 335.003906 256.285156 C 336.386719 255.519531 336.570312 254.535156 335.585938 253.292969 C 329.789062 246.148438 330.734375 239.875 338.429688 234.476562 C 338.464844 234.441406 338.539062 234.367188 338.574219 234.332031 C 338.902344 233.96875 338.832031 233.421875 338.503906 233.128906 C 338.429688 233.054688 338.355469 233.019531 338.285156 232.984375 C 333.03125 230.722656 330.445312 226.675781 330.480469 220.914062 C 330.480469 220.257812 330.226562 219.710938 329.714844 219.308594 C 326.835938 217.011719 325.449219 213.984375 325.519531 210.226562 C 325.519531 209.425781 326.175781 208.769531 326.980469 208.769531 C 355.132812 208.1875 369.535156 197.613281 372.742188 168.804688 C 374.164062 156.113281 377.230469 147.109375 387.546875 138.792969 C 388.132812 138.320312 388.277344 138.429688 387.949219 139.085938 C 382.808594 149.734375 378.433594 155.566406 377.996094 168.003906 C 377.703125 177.375 377.519531 182.113281 377.519531 182.261719 C 373.691406 203.773438 358.15625 211.613281 338.574219 216.972656 C 337.992188 217.121094 337.554688 217.558594 337.371094 218.140625 C 335.769531 223.976562 342.039062 229.335938 344.957031 232.546875 C 345.140625 232.726562 345.25 233.019531 345.25 233.3125 C 345.25 233.640625 345.066406 233.96875 344.773438 234.1875 C 336.023438 240.785156 337.589844 249.320312 345.394531 255.480469 C 345.976562 255.957031 345.941406 256.320312 345.210938 256.574219 L 335.402344 260.003906 C 334.273438 260.40625 333.542969 261.460938 333.542969 262.664062 C 333.542969 263.539062 333.945312 264.378906 334.636719 264.890625 C 345.757812 273.238281 344.335938 280.605469 333.398438 287.753906 C 332.777344 288.152344 332.667969 288.664062 332.996094 289.320312 C 344.300781 310.980469 370.15625 301.902344 387.695312 312.402344 C 417.632812 330.308594 416.0625 390.730469 413.621094 420.046875 C 413.546875 420.921875 413.839844 421.03125 414.460938 420.449219 C 464.636719 371.660156 555.25 285.964844 475.355469 215.003906 C 475.28125 214.933594 475.171875 214.894531 475.0625 214.894531 C 474.882812 214.894531 474.734375 215.042969 474.734375 215.222656 C 474.734375 215.296875 474.773438 215.40625 474.808594 215.441406 C 505.292969 266.640625 492.019531 318.710938 454.644531 361.414062 C 454.535156 361.523438 454.425781 361.59375 454.316406 361.59375 C 454.023438 361.632812 453.949219 361.484375 454.171875 361.230469 C 464.308594 346.753906 472.039062 332.023438 477.363281 317 C 498.621094 256.976562 469.632812 216.972656 425.105469 181.382812 C 397.320312 159.214844 389.917969 133.796875 386.820312 99.667969 C 386.78125 99.484375 386.855469 99.410156 387.039062 99.484375 C 387.21875 99.519531 387.402344 99.59375 387.546875 99.628906 C 387.65625 99.667969 387.730469 99.738281 387.730469 99.847656 C 392.179688 126.066406 403.957031 150.789062 424.050781 168.441406 C 436.996094 179.78125 458.507812 189.40625 472.804688 198.269531 C 519.1875 227.074219 530.710938 275.902344 516.34375 326.734375 C 515.941406 328.265625 516.34375 328.484375 517.507812 327.5 C 550.949219 299.058594 588.871094 278.890625 631.28125 267.078125 C 631.9375 266.894531 632.230469 267.113281 632.191406 267.808594 C 628.691406 315.464844 615.453125 362.507812 584.714844 399.738281 C 584.167969 400.394531 584.351562 400.757812 585.1875 400.792969 C 624.609375 402.835938 666.105469 407.757812 701.546875 426.429688 C 701.914062 426.613281 702.167969 427.011719 702.167969 427.449219 C 702.167969 427.742188 702.058594 427.996094 701.875 428.214844 C 643.277344 496.441406 562.945312 539.582031 471.820312 505.121094 Z M 363.699219 450.167969 C 363.554688 450.824219 363.117188 451.007812 362.316406 450.679688 C 319.285156 449.585938 282.382812 434.925781 251.644531 406.664062 C 251.167969 406.226562 250.585938 406.046875 249.929688 406.117188 C 217.984375 410.058594 187.683594 417.898438 159.3125 433.210938 C 158.949219 433.429688 158.695312 433.832031 158.695312 434.269531 C 158.695312 434.5625 158.804688 434.816406 158.984375 435.035156 C 211.09375 494.035156 277.386719 526.636719 356.953125 504.976562 C 357.355469 504.648438 357.574219 504.867188 357.648438 505.667969 C 266.449219 537.722656 186.734375 497.390625 128.648438 427.996094 C 128.171875 427.449219 128.28125 427.011719 128.902344 426.683594 C 162.886719 407.648438 207.082031 402.398438 245.335938 400.941406 C 246.355469 400.902344 246.539062 400.464844 245.882812 399.699219 C 215.25 363.492188 201.832031 314.917969 198.148438 267.660156 C 198.113281 267.113281 198.332031 266.929688 198.878906 267.078125 C 244.933594 279.695312 285.410156 302.265625 320.269531 334.757812 C 327.199219 341.246094 326.835938 341.722656 319.101562 336.179688 C 290.148438 315.394531 253.902344 295.265625 217.695312 289.210938 C 217 289.101562 216.671875 289.394531 216.710938 290.125 C 223.710938 379.5 272.867188 438.9375 363.699219 450.167969 Z M 363.699219 450.167969 " fill-opacity="1" fill-rule="evenodd"/></g><g fill="#191919" fill-opacity="1"><g transform="translate(27.237973, 636.875816)"><g><path d="M 18.25 0 L 5.859375 0 L 5.859375 -65.6875 L 19.796875 -65.6875 L 46.75 -18.6875 L 46.75 -65.6875 L 59.140625 -65.6875 L 59.140625 0 L 45.109375 0 L 18.25 -47.09375 Z M 18.25 0 "/></g></g></g><g fill="#191919" fill-opacity="1"><g transform="translate(92.225832, 636.875816)"><g><path d="M 31.6875 1.203125 C 25.425781 1.203125 20.34375 0.15625 16.4375 -1.9375 C 12.539062 -4.03125 9.6875 -6.96875 7.875 -10.75 C 6.070312 -14.539062 5.171875 -18.90625 5.171875 -23.84375 L 5.171875 -65.6875 L 17.65625 -65.6875 L 17.65625 -23.84375 C 17.65625 -21.144531 18.082031 -18.734375 18.9375 -16.609375 C 19.800781 -14.492188 21.265625 -12.847656 23.328125 -11.671875 C 25.398438 -10.492188 28.1875 -9.90625 31.6875 -9.90625 C 35.238281 -9.90625 38.035156 -10.492188 40.078125 -11.671875 C 42.117188 -12.847656 43.566406 -14.492188 44.421875 -16.609375 C 45.285156 -18.734375 45.71875 -21.144531 45.71875 -23.84375 L 45.71875 -65.6875 L 58.203125 -65.6875 L 58.203125 -23.84375 C 58.203125 -18.90625 57.296875 -14.539062 55.484375 -10.75 C 53.679688 -6.96875 50.828125 -4.03125 46.921875 -1.9375 C 43.015625 0.15625 37.9375 1.203125 31.6875 1.203125 Z M 31.6875 1.203125 "/></g></g></g><g fill="#191919" fill-opacity="1"><g transform="translate(155.664318, 636.875816)"><g><path d="M 44.6875 -28.5 L 56.484375 0 L 43.3125 0 L 32.890625 -26.265625 L 18.25 -26.265625 L 18.25 0 L 5.859375 0 L 5.859375 -65.6875 L 34.171875 -65.6875 C 38.304688 -65.6875 41.9375 -65.007812 45.0625 -63.65625 C 48.195312 -62.3125 50.640625 -60.21875 52.390625 -57.375 C 54.140625 -54.539062 55.015625 -50.851562 55.015625 -46.3125 C 55.015625 -42.007812 54.09375 -38.335938 52.25 -35.296875 C 50.414062 -32.253906 47.894531 -29.988281 44.6875 -28.5 Z M 32.453125 -54.578125 L 18.25 -54.578125 L 18.25 -37.109375 L 32.453125 -37.109375 C 35.785156 -37.109375 38.328125 -37.851562 40.078125 -39.34375 C 41.828125 -40.832031 42.703125 -43.015625 42.703125 -45.890625 C 42.703125 -48.703125 41.8125 -50.851562 40.03125 -52.34375 C 38.25 -53.832031 35.722656 -54.578125 32.453125 -54.578125 Z M 32.453125 -54.578125 "/></g></g></g><g fill="#191919" fill-opacity="1"><g transform="translate(214.971121, 636.875816)"><g><path d="M 35.21875 1.203125 C 29.757812 1.203125 25.035156 0.285156 21.046875 -1.546875 C 17.054688 -3.378906 13.753906 -5.875 11.140625 -9.03125 C 8.535156 -12.195312 6.585938 -15.832031 5.296875 -19.9375 C 4.003906 -24.039062 3.359375 -28.359375 3.359375 -32.890625 C 3.359375 -37.421875 4.003906 -41.738281 5.296875 -45.84375 C 6.585938 -49.945312 8.535156 -53.578125 11.140625 -56.734375 C 13.753906 -59.890625 17.054688 -62.367188 21.046875 -64.171875 C 25.035156 -65.984375 29.757812 -66.890625 35.21875 -66.890625 C 40.613281 -66.890625 45.289062 -65.972656 49.25 -64.140625 C 53.207031 -62.304688 56.363281 -59.75 58.71875 -56.46875 C 61.070312 -53.195312 62.535156 -49.410156 63.109375 -45.109375 L 49.59375 -45.109375 C 49.019531 -48.609375 47.394531 -51.257812 44.71875 -53.0625 C 42.050781 -54.875 38.769531 -55.78125 34.875 -55.78125 C 30.851562 -55.78125 27.460938 -54.816406 24.703125 -52.890625 C 21.953125 -50.972656 19.859375 -48.289062 18.421875 -44.84375 C 16.984375 -41.40625 16.265625 -37.421875 16.265625 -32.890625 C 16.265625 -28.359375 16.984375 -24.351562 18.421875 -20.875 C 19.859375 -17.40625 21.953125 -14.707031 24.703125 -12.78125 C 27.460938 -10.863281 30.851562 -9.90625 34.875 -9.90625 C 38.769531 -9.90625 42.035156 -10.847656 44.671875 -12.734375 C 47.316406 -14.628906 48.957031 -17.5 49.59375 -21.34375 L 63.109375 -21.34375 C 62.535156 -16.8125 61.070312 -12.851562 58.71875 -9.46875 C 56.363281 -6.082031 53.207031 -3.457031 49.25 -1.59375 C 45.289062 0.269531 40.613281 1.203125 35.21875 1.203125 Z M 35.21875 1.203125 "/></g></g></g><g fill="#191919" fill-opacity="1"><g transform="translate(280.9919, 636.875816)"><g><path d="M 13.609375 0 L 0.609375 0 L 23.765625 -65.6875 L 37.359375 -65.6875 L 60.53125 0 L 47.53125 0 L 43.046875 -13.515625 L 18 -13.515625 Z M 30.5625 -52.171875 L 21.515625 -24.359375 L 39.609375 -24.359375 Z M 30.5625 -52.171875 "/></g></g></g><g fill="#191919" fill-opacity="1"><g transform="translate(342.106294, 636.875816)"><g><path d="M 18.25 0 L 5.859375 0 L 5.859375 -65.6875 L 19.796875 -65.6875 L 46.75 -18.6875 L 46.75 -65.6875 L 59.140625 -65.6875 L 59.140625 0 L 45.109375 0 L 18.25 -47.09375 Z M 18.25 0 "/></g></g></g><g fill="#191919" fill-opacity="1"><g transform="translate(407.094153, 636.875816)"><g/></g></g><g fill="#191919" fill-opacity="1"><g transform="translate(430.162712, 636.875816)"><g><path d="M 32.96875 0 L 5.859375 0 L 5.859375 -65.6875 L 31.859375 -65.6875 C 39.890625 -65.6875 45.6875 -63.910156 49.25 -60.359375 C 51.945312 -57.660156 53.296875 -53.957031 53.296875 -49.25 C 53.296875 -45.519531 52.445312 -42.332031 50.75 -39.6875 C 49.0625 -37.050781 46.664062 -35.332031 43.5625 -34.53125 C 47.8125 -33.832031 51.054688 -32.148438 53.296875 -29.484375 C 55.535156 -26.816406 56.65625 -23.359375 56.65625 -19.109375 C 56.65625 -15.953125 56.09375 -13.195312 54.96875 -10.84375 C 53.851562 -8.488281 52.460938 -6.597656 50.796875 -5.171875 C 48.898438 -3.617188 46.789062 -2.46875 44.46875 -1.71875 C 42.144531 -0.976562 39.960938 -0.503906 37.921875 -0.296875 C 35.890625 -0.0976562 34.238281 0 32.96875 0 Z M 18.25 -54.578125 L 18.25 -38.390625 L 31.078125 -38.390625 C 34.234375 -38.390625 36.644531 -39.09375 38.3125 -40.5 C 39.976562 -41.90625 40.8125 -43.929688 40.8125 -46.578125 C 40.8125 -49.160156 40.035156 -51.054688 38.484375 -52.265625 C 36.703125 -53.804688 33.570312 -54.578125 29.09375 -54.578125 Z M 18.25 -28.328125 L 18.25 -11.109375 L 31.421875 -11.109375 C 33.085938 -11.109375 34.894531 -11.25 36.84375 -11.53125 C 38.800781 -11.820312 40.4375 -12.539062 41.75 -13.6875 C 42.550781 -14.320312 43.15625 -15.15625 43.5625 -16.1875 C 43.96875 -17.21875 44.171875 -18.507812 44.171875 -20.0625 C 44.171875 -22.644531 43.582031 -24.507812 42.40625 -25.65625 C 41.226562 -26.800781 39.765625 -27.53125 38.015625 -27.84375 C 36.265625 -28.164062 34.523438 -28.328125 32.796875 -28.328125 Z M 18.25 -28.328125 "/></g></g></g><g fill="#191919" fill-opacity="1"><g transform="translate(490.244219, 636.875816)"><g><path d="M 49.671875 0 L 5.859375 0 L 5.859375 -65.6875 L 49.671875 -65.6875 L 49.671875 -54.578125 L 18.25 -54.578125 L 18.25 -38.390625 L 46.40625 -38.390625 L 46.40625 -27.375 L 18.25 -27.375 L 18.25 -11.109375 L 49.671875 -11.109375 Z M 49.671875 0 "/></g></g></g><g fill="#191919" fill-opacity="1"><g transform="translate(543.697832, 636.875816)"><g><path d="M 13.609375 0 L 0.609375 0 L 23.765625 -65.6875 L 37.359375 -65.6875 L 60.53125 0 L 47.53125 0 L 43.046875 -13.515625 L 18 -13.515625 Z M 30.5625 -52.171875 L 21.515625 -24.359375 L 39.609375 -24.359375 Z M 30.5625 -52.171875 "/></g></g></g><g fill="#191919" fill-opacity="1"><g transform="translate(604.812275, 636.875816)"><g><path d="M 31.6875 1.203125 C 25.425781 1.203125 20.34375 0.15625 16.4375 -1.9375 C 12.539062 -4.03125 9.6875 -6.96875 7.875 -10.75 C 6.070312 -14.539062 5.171875 -18.90625 5.171875 -23.84375 L 5.171875 -65.6875 L 17.65625 -65.6875 L 17.65625 -23.84375 C 17.65625 -21.144531 18.082031 -18.734375 18.9375 -16.609375 C 19.800781 -14.492188 21.265625 -12.847656 23.328125 -11.671875 C 25.398438 -10.492188 28.1875 -9.90625 31.6875 -9.90625 C 35.238281 -9.90625 38.035156 -10.492188 40.078125 -11.671875 C 42.117188 -12.847656 43.566406 -14.492188 44.421875 -16.609375 C 45.285156 -18.734375 45.71875 -21.144531 45.71875 -23.84375 L 45.71875 -65.6875 L 58.203125 -65.6875 L 58.203125 -23.84375 C 58.203125 -18.90625 57.296875 -14.539062 55.484375 -10.75 C 53.679688 -6.96875 50.828125 -4.03125 46.921875 -1.9375 C 43.015625 0.15625 37.9375 1.203125 31.6875 1.203125 Z M 31.6875 1.203125 "/></g></g></g><g fill="#191919" fill-opacity="1"><g transform="translate(668.250728, 636.875816)"><g><path d="M 33.3125 0 L 20.921875 0 L 20.921875 -54.578125 L 0.859375 -54.578125 L 0.859375 -65.6875 L 53.296875 -65.6875 L 53.296875 -54.578125 L 33.3125 -54.578125 Z M 33.3125 0 "/></g></g></g><g fill="#191919" fill-opacity="1"><g transform="translate(722.47901, 636.875816)"><g><path d="M 36.671875 0 L 23.671875 0 L 23.671875 -25.734375 L -0.265625 -65.6875 L 14.203125 -65.6875 L 30.125 -37.796875 L 46.140625 -65.6875 L 60.53125 -65.6875 L 36.671875 -25.734375 Z M 36.671875 0 "/></g></g></g><g fill="#dfc082" fill-opacity="1"><g transform="translate(249.477791, 703.380492)"><g><path d="M 11.296875 0 L 2.359375 0 L 2.359375 -22.796875 L 10.9375 -22.796875 C 12.226562 -22.796875 13.328125 -22.648438 14.234375 -22.359375 C 15.140625 -22.066406 15.875 -21.65625 16.4375 -21.125 C 16.945312 -20.625 17.328125 -20.03125 17.578125 -19.34375 C 17.828125 -18.65625 17.953125 -17.90625 17.953125 -17.09375 C 17.953125 -15.738281 17.609375 -14.570312 16.921875 -13.59375 C 16.234375 -12.613281 15.285156 -12.066406 14.078125 -11.953125 C 15.679688 -11.828125 16.914062 -11.269531 17.78125 -10.28125 C 18.65625 -9.300781 19.09375 -8.015625 19.09375 -6.421875 C 19.09375 -5.410156 18.9375 -4.546875 18.625 -3.828125 C 18.3125 -3.109375 17.910156 -2.5 17.421875 -2 C 16.878906 -1.476562 16.25 -1.066406 15.53125 -0.765625 C 14.8125 -0.472656 14.082031 -0.269531 13.34375 -0.15625 C 12.613281 -0.0507812 11.929688 0 11.296875 0 Z M 5.109375 -20.3125 L 5.109375 -12.90625 L 10.9375 -12.90625 C 12.289062 -12.90625 13.332031 -13.234375 14.0625 -13.890625 C 14.800781 -14.546875 15.171875 -15.460938 15.171875 -16.640625 C 15.171875 -17.210938 15.085938 -17.703125 14.921875 -18.109375 C 14.753906 -18.523438 14.519531 -18.875 14.21875 -19.15625 C 13.78125 -19.570312 13.226562 -19.867188 12.5625 -20.046875 C 11.894531 -20.222656 11.15625 -20.3125 10.34375 -20.3125 Z M 5.109375 -10.453125 L 5.109375 -2.484375 L 11 -2.484375 C 11.289062 -2.484375 11.691406 -2.492188 12.203125 -2.515625 C 12.710938 -2.546875 13.238281 -2.644531 13.78125 -2.8125 C 14.332031 -2.988281 14.816406 -3.273438 15.234375 -3.671875 C 15.578125 -3.972656 15.847656 -4.363281 16.046875 -4.84375 C 16.242188 -5.320312 16.34375 -5.910156 16.34375 -6.609375 C 16.34375 -7.554688 16.15625 -8.296875 15.78125 -8.828125 C 15.414062 -9.359375 14.960938 -9.738281 14.421875 -9.96875 C 13.890625 -10.195312 13.363281 -10.332031 12.84375 -10.375 C 12.320312 -10.425781 11.90625 -10.453125 11.59375 -10.453125 Z M 5.109375 -10.453125 "/></g></g></g><g fill="#dfc082" fill-opacity="1"><g transform="translate(277.357506, 703.380492)"><g><path d="M 17.09375 0 L 2.359375 0 L 2.359375 -22.796875 L 17.09375 -22.796875 L 17.09375 -20.3125 L 5.109375 -20.3125 L 5.109375 -12.671875 L 15.6875 -12.671875 L 15.6875 -10.21875 L 5.109375 -10.21875 L 5.109375 -2.484375 L 17.09375 -2.484375 Z M 17.09375 0 "/></g></g></g><g fill="#dfc082" fill-opacity="1"><g transform="translate(303.026083, 703.380492)"><g><path d="M 3.203125 0 L 0.421875 0 L 8.8125 -22.796875 L 11.921875 -22.796875 L 20.3125 0 L 17.53125 0 L 15.53125 -5.59375 L 5.203125 -5.59375 Z M 10.359375 -19.984375 L 6.125 -8.03125 L 14.609375 -8.03125 Z M 10.359375 -19.984375 "/></g></g></g><g fill="#dfc082" fill-opacity="1"><g transform="translate(331.025309, 703.380492)"><g><path d="M 10.609375 0.296875 C 7.722656 0.296875 5.59375 -0.429688 4.21875 -1.890625 C 2.84375 -3.359375 2.15625 -5.359375 2.15625 -7.890625 L 2.15625 -22.796875 L 4.90625 -22.796875 L 4.90625 -7.890625 C 4.90625 -6.117188 5.359375 -4.71875 6.265625 -3.6875 C 7.171875 -2.664062 8.617188 -2.15625 10.609375 -2.15625 C 12.597656 -2.15625 14.046875 -2.664062 14.953125 -3.6875 C 15.859375 -4.71875 16.3125 -6.117188 16.3125 -7.890625 L 16.3125 -22.796875 L 19.0625 -22.796875 L 19.0625 -7.890625 C 19.0625 -5.359375 18.375 -3.359375 17 -1.890625 C 15.625 -0.429688 13.492188 0.296875 10.609375 0.296875 Z M 10.609375 0.296875 "/></g></g></g><g fill="#dfc082" fill-opacity="1"><g transform="translate(359.53251, 703.380492)"><g><path d="M 10.875 0 L 8.125 0 L 8.125 -20.3125 L 0.421875 -20.3125 L 0.421875 -22.796875 L 18.609375 -22.796875 L 18.609375 -20.3125 L 10.875 -20.3125 Z M 10.875 0 "/></g></g></g><g fill="#dfc082" fill-opacity="1"><g transform="translate(385.828572, 703.380492)"><g><path d="M 11.53125 0 L 8.65625 0 L 8.65625 -8.71875 L 0.125 -22.796875 L 3.3125 -22.796875 L 10.03125 -11.4375 L 16.84375 -22.796875 L 19.984375 -22.796875 L 11.53125 -8.71875 Z M 11.53125 0 "/></g></g></g><g fill="#dfc082" fill-opacity="1"><g transform="translate(413.230194, 703.380492)"><g/></g></g><g fill="#dfc082" fill-opacity="1"><g transform="translate(428.859046, 703.380492)"><g><path d="M 10.609375 0.296875 C 9.109375 0.296875 7.691406 0.0507812 6.359375 -0.4375 C 5.023438 -0.925781 3.90625 -1.703125 3 -2.765625 C 2.09375 -3.828125 1.507812 -5.207031 1.25 -6.90625 L 4.03125 -6.90625 C 4.269531 -5.6875 4.738281 -4.734375 5.4375 -4.046875 C 6.132812 -3.359375 6.957031 -2.867188 7.90625 -2.578125 C 8.851562 -2.296875 9.789062 -2.15625 10.71875 -2.15625 C 12.3125 -2.15625 13.5625 -2.488281 14.46875 -3.15625 C 15.375 -3.820312 15.828125 -4.832031 15.828125 -6.1875 C 15.828125 -7 15.648438 -7.664062 15.296875 -8.1875 C 14.953125 -8.707031 14.484375 -9.125 13.890625 -9.4375 C 13.296875 -9.757812 12.625 -10.019531 11.875 -10.21875 C 11.125 -10.414062 10.34375 -10.601562 9.53125 -10.78125 C 8.632812 -10.957031 7.753906 -11.164062 6.890625 -11.40625 C 6.023438 -11.644531 5.238281 -11.972656 4.53125 -12.390625 C 3.820312 -12.816406 3.253906 -13.378906 2.828125 -14.078125 C 2.398438 -14.785156 2.1875 -15.695312 2.1875 -16.8125 C 2.1875 -18.113281 2.5 -19.226562 3.125 -20.15625 C 3.75 -21.09375 4.617188 -21.816406 5.734375 -22.328125 C 6.847656 -22.835938 8.15625 -23.09375 9.65625 -23.09375 C 10.945312 -23.09375 12.175781 -22.867188 13.34375 -22.421875 C 14.507812 -21.972656 15.503906 -21.269531 16.328125 -20.3125 C 17.148438 -19.351562 17.679688 -18.085938 17.921875 -16.515625 L 15.265625 -16.515625 C 15.046875 -17.554688 14.644531 -18.375 14.0625 -18.96875 C 13.488281 -19.5625 12.8125 -19.988281 12.03125 -20.25 C 11.257812 -20.507812 10.457031 -20.640625 9.625 -20.640625 C 8.082031 -20.640625 6.910156 -20.316406 6.109375 -19.671875 C 5.316406 -19.023438 4.921875 -18.15625 4.921875 -17.0625 C 4.921875 -16.144531 5.195312 -15.429688 5.75 -14.921875 C 6.300781 -14.410156 7.019531 -14.019531 7.90625 -13.75 C 8.789062 -13.488281 9.738281 -13.25 10.75 -13.03125 C 11.6875 -12.832031 12.617188 -12.601562 13.546875 -12.34375 C 14.472656 -12.082031 15.3125 -11.722656 16.0625 -11.265625 C 16.820312 -10.804688 17.429688 -10.1875 17.890625 -9.40625 C 18.347656 -8.632812 18.578125 -7.617188 18.578125 -6.359375 C 18.578125 -4.347656 17.898438 -2.734375 16.546875 -1.515625 C 15.191406 -0.304688 13.210938 0.296875 10.609375 0.296875 Z M 10.609375 0.296875 "/></g></g></g><g fill="#dfc082" fill-opacity="1"><g transform="translate(456.230786, 703.380492)"><g><path d="M 3.203125 0 L 0.421875 0 L 8.8125 -22.796875 L 11.921875 -22.796875 L 20.3125 0 L 17.53125 0 L 15.53125 -5.59375 L 5.203125 -5.59375 Z M 10.359375 -19.984375 L 6.125 -8.03125 L 14.609375 -8.03125 Z M 10.359375 -19.984375 "/></g></g></g><g fill="#dfc082" fill-opacity="1"><g transform="translate(484.230009, 703.380492)"><g><path d="M 15.328125 0 L 2.359375 0 L 2.359375 -22.796875 L 5.109375 -22.796875 L 5.109375 -2.484375 L 15.328125 -2.484375 Z M 15.328125 0 "/></g></g></g><g fill="#dfc082" fill-opacity="1"><g transform="translate(507.269137, 703.380492)"><g><path d="M 12.0625 0.296875 C 10.269531 0.296875 8.710938 -0.015625 7.390625 -0.640625 C 6.066406 -1.265625 4.96875 -2.125 4.09375 -3.21875 C 3.21875 -4.320312 2.566406 -5.570312 2.140625 -6.96875 C 1.710938 -8.375 1.5 -9.851562 1.5 -11.40625 C 1.5 -12.96875 1.710938 -14.445312 2.140625 -15.84375 C 2.566406 -17.25 3.21875 -18.492188 4.09375 -19.578125 C 4.96875 -20.671875 6.066406 -21.53125 7.390625 -22.15625 C 8.710938 -22.78125 10.269531 -23.09375 12.0625 -23.09375 C 13.875 -23.09375 15.445312 -22.78125 16.78125 -22.15625 C 18.125 -21.53125 19.234375 -20.671875 20.109375 -19.578125 C 20.984375 -18.492188 21.632812 -17.25 22.0625 -15.84375 C 22.488281 -14.445312 22.703125 -12.96875 22.703125 -11.40625 C 22.703125 -9.851562 22.488281 -8.375 22.0625 -6.96875 C 21.632812 -5.570312 20.984375 -4.320312 20.109375 -3.21875 C 19.234375 -2.125 18.125 -1.265625 16.78125 -0.640625 C 15.445312 -0.015625 13.875 0.296875 12.0625 0.296875 Z M 12.0625 -2.1875 C 13.78125 -2.1875 15.222656 -2.582031 16.390625 -3.375 C 17.566406 -4.175781 18.453125 -5.269531 19.046875 -6.65625 C 19.648438 -8.050781 19.953125 -9.632812 19.953125 -11.40625 C 19.953125 -13.1875 19.648438 -14.765625 19.046875 -16.140625 C 18.453125 -17.523438 17.566406 -18.613281 16.390625 -19.40625 C 15.222656 -20.207031 13.78125 -20.609375 12.0625 -20.609375 C 10.394531 -20.609375 8.976562 -20.207031 7.8125 -19.40625 C 6.644531 -18.613281 5.757812 -17.523438 5.15625 -16.140625 C 4.550781 -14.765625 4.25 -13.1875 4.25 -11.40625 C 4.25 -9.632812 4.550781 -8.050781 5.15625 -6.65625 C 5.757812 -5.269531 6.644531 -4.175781 7.8125 -3.375 C 8.976562 -2.582031 10.394531 -2.1875 12.0625 -2.1875 Z M 12.0625 -2.1875 "/></g></g></g><g fill="#dfc082" fill-opacity="1"><g transform="translate(538.764345, 703.380492)"><g><path d="M 5.109375 0 L 2.359375 0 L 2.359375 -22.796875 L 6.359375 -22.796875 L 16.609375 -2.75 L 16.609375 -22.796875 L 19.328125 -22.796875 L 19.328125 0 L 15.328125 0 L 5.109375 -19.984375 Z M 5.109375 0 "/></g></g></g></svg>